<?xml version="1.0" encoding="UTF-8" standalone="no"?>
<svg
   xmlns:dc="http://purl.org/dc/elements/1.1/"
   xmlns:cc="http://creativecommons.org/ns#"
   xmlns:rdf="http://www.w3.org/1999/02/22-rdf-syntax-ns#"
   xmlns:svg="http://www.w3.org/2000/svg"
   xmlns="http://www.w3.org/2000/svg"
   class="img-fluid"
   id="outputsvg"
   width="360"
   height="280"
   viewBox="0 0 3600 2800"
   version="1.1">
  <metadata
     id="metadata70">
    <rdf:RDF>
      <cc:Work
         rdf:about="">
        <dc:format>image/svg+xml</dc:format>
        <dc:type
           rdf:resource="http://purl.org/dc/dcmitype/StillImage" />
        <dc:title></dc:title>
      </cc:Work>
    </rdf:RDF>
  </metadata>
  <defs
     id="defs68" />
  <g
     id="l2tSNb6A2gf6uzlVnzPL0Z3"
     fill="#f8f7f7"
     transform="translate(8.722094,-489.97948)">
    <g
       id="g50">
      <path
         id="pldVPaDEs"
         d="M 2963.1316,3214.6738 C 2448.6588,3212.7602 2308.0514,2740.3526 2316.2609,2560 c 0.4068,-321.0021 210.5358,-622.4961 634.9134,-632.5218 430.1492,-3.5318 627.5576,356.2741 638.2958,589.9146 10.1335,350.6553 -205.0808,667.0247 -626.3385,697.281 z m 529.589,-651.0565 c 0,-300.0073 -243.204,-543.2113 -543.2113,-543.2113 -300.0074,0 -543.2114,243.204 -543.2114,543.2113 0,300.0073 243.204,543.2113 543.2114,543.2113 300.0073,0 543.2113,-243.204 543.2113,-543.2113 z" />
      <path
         id="pvVugeu8i"
         d="m 3393.552,2564.1563 c 0,244.373 -198.1034,442.4763 -442.4763,442.4763 -244.3729,0 -442.4763,-198.1033 -442.4763,-442.4763 0,-244.3729 198.1034,-442.4763 442.4763,-442.4763 244.3729,0 442.4763,198.1034 442.4763,442.4763 z M 2855,2996 m 439.2596,-437.1471 c 0,-187.9331 -152.3498,-340.2829 -340.2829,-340.2829 -187.9331,0 -340.283,152.3498 -340.283,340.2829 0,187.9331 152.3499,340.283 340.283,340.283 187.9331,0 340.2829,-152.3499 340.2829,-340.283 z M 3077,2874" />
      <path
         id="p1EhXQIjTs"
         d="m 40,2562 v -599 l 6.547927,-10.5305 C 59.547927,1940.4695 91,1920 97,1920 c 303.19009,206.2944 508.33145,438.7287 759,640 2,0 4,-134 4,-298 0,-218 3.77396,-321.9652 3.77396,-321.9652 99.69655,-0.043 168.93024,-0.035 276.22604,-0.035 v 600 600 h -58 c -54,0 -47.3285,-1.8263 -97.1322,-39.0746 C 806.70504,2947.4279 609.23344,2796.2497 455,2659.9998 c -46.37144,-35.0656 -54.27,-43.8081 -115,-90 -3.12601,-3.5285 -4,-10 -10,-10 -6,0 -10,107 -10,300 v 300 H 180 40 Z m 192,161 3,-328 c 17.33202,-13.3803 309.07694,179.1684 361,222 152,125 291,239 308,253 18,14 57,46 88,73 30,26 58,47 62,47 3,0 5,-215 4,-477 l -3,-478 -58,-3 -59,-3 3,338 3,338 -36,3 c -38,3 -34,6 -352,-262 -65,-56 -142,-120 -170,-143 -28,-23 -96,-79 -151,-126 l -100,-84 -3,276 c -2,152 0,367 3,479 l 7,202 h 44 44 z" />
      <path
         id="pqQeZjW7A"
         d="m 1145.5037,3127.5962 c 12.584,-59.6882 114.9515,-194.8786 91.2441,-223.4396 C 1233.7478,2898.8957 1218,2900 1195,2900 h -35 v -128 c 0,-86 4,-132 12,-140 8,-8 48,-12 115,-12 h 103 c 85.6559,-183.5797 203.6582,-367.9074 286,-538 48,-99 78,-142 99,-142 7,0 26,7 43,16 24,11 41,36 72,99 105.5001,200.4018 223.3142,387.1164 320,580 99.6756,178.3307 237.8358,479.4454 257.7145,503.6336 0,0 -6.5737,0.461 -177.7145,1.3664 -159.7997,0.8454 -189.4712,0.8061 -189.4712,0.8061 C 2069.9555,3063.2609 2017.9953,2991.4742 1990,2940 h -198 -198 l -25,28 c -14,15 -41,60 -60,99 l -34,72 -157,1 -172.5417,1.0576 z M 1427,2948 l 61,-113 295,-3 296,-2 58,112 58,113 58,3 c 31,2 57,1 57,-2 0,-3 -104,-195 -232,-428 -128,-233 -246,-448 -262,-479 l -30,-56 -138,254 c -76,140 -153,281 -171,314 l -32,59 h -102 -103 v 55 55 h 60 60 v 30 c 0,18 -19,63 -45,109 -25,43 -45,81 -45,84 0,4 21,7 48,7 h 47 z" />
      <path
         id="pw5Wmj78R"
         d="m 1577,2713 c 9.9997,-159.6751 84.4216,-235.4499 168,-393 h 36 36 l 87,161 c 66,124 74.7827,207.4782 74.7827,207.4782 L 1990,2720 h -203 c -112,0 -207,-3 -210,-7 z m 301.9878,-78.9633 c -97.2286,-240.707 -97.776,-240.7747 -199.781,4.6883 67.3152,0.3351 143.1244,-2.399 199.781,-4.6883 z" />
      <path
         id="pERVHof29"
         d="M 2560,1220 V 560 l 213.1363,0.52879 c 589.0016,2.35264 771.4694,317.35075 772.1516,670.52881 C 3553.3902,1577.3307 3335.0764,1884.2779 2779,1880 h -219 z m 414,549 c 165,-43 220,-72 309,-162 99,-99 169,-255 169,-377 -1,-205 -131,-408 -323,-500 -102,-49 -164,-60 -335,-60 h -132 l -3,453 c -2,248 -2,498 -1,555 l 4,102 h 135 c 75,0 154,-5 177,-11 z" />
      <path
         id="p16osIDs2V"
         d="m 2770,1286 c 0,-210 -3,-411 -6,-445 l -7,-62 124,4 c 68,2 142,8 165,14 91,22 192,99 245,188 42,70 49,104 49,244 0,129 -1,135 -32,199 -58,123 -174,211 -304,232 -32,6 -98,10 -146,10 h -88 z m 474.4869,-73.9303 C 3243.2028,1047.9545 3088.0591,914.57612 2913.6261,886.48693 L 2865,885 c 3.6823,187.7586 -8.6626,496.9053 0,681.4434 196.9522,16.094 413.0462,-174.31 379.4869,-354.3737 z" />
      <path
         id="p4POxX30W"
         d="m 1922.5923,1869.6196 c -383.8175,1.3788 -601.5695,-260.3769 -614.1787,-444.3317 0,0 2.53,0.6605 0,0 C 1302.6082,1423.7723 1300,1490 1300,1610 v 190 H 1140 980 v -210 c 0,-116 -2,-210 -5,-210 -138.00448,162.1619 -172.69868,201.8664 -347,399 -141.9403,-149.3519 -192.87916,-201.1828 -343,-399 -3,0 -5,94 -5,210 v 210 H 140 0 V 1189 579 l 71.036428,-2.2879 C 432.92801,980.71302 431.6063,990.75891 635,1220 740.29238,1095.3752 836.38414,975.82815 940,865 c 63.2846,-67.72617 135.6224,-143.22276 184.4956,-197.76525 75.1284,-84.59155 82.8873,-84.99129 82.8873,-84.99129 l 90.3736,-1.49564 L 1300,810 c 0.8057,82.3291 -0.6076,164.62502 -1.0751,194.802 -0.09,5.8165 -33.9876,3.3512 -33.9847,4.9222 70.2712,-209.15533 358.4301,-444.72855 672.2173,-436.06968 430.1033,31.5748 601.6691,323.25824 616.2771,522.15428 63.9629,398.1631 -133.1656,750.4303 -630.8423,773.8108 z m 527.693,-645.0512 c 0,-298.38134 -241.8859,-540.26721 -540.2672,-540.26721 -298.3814,0 -540.2673,241.88587 -540.2673,540.26721 0,298.3813 241.8859,540.2672 540.2673,540.2672 298.3813,0 540.2672,-241.8859 540.2672,-540.2672 z M 192,1428 l 3,-273 40,-3 41,-3 114,138 c 201,243 234,283 241,283 4,0 33,-33 65,-72 33,-40 95,-116 139,-170 44,-53 95,-115 113,-137 30,-37 38,-41 78,-41 h 44 v 275 275 h 60 60 V 1224 749 l -82,97 c -46,53 -119,141 -163,194 -265,320 -274,330 -314,329 -34,0 -43,-9 -166,-156 C 393,1127 278,990 208,908 L 80,758 v 471 471 h 55 55 z" />
      <path
         id="pD4I2zYAo"
         d="m 2356.6284,1224.272 c 0,246.2167 -199.5981,445.8148 -445.8148,445.8148 -246.2167,0 -445.8148,-199.5981 -445.8148,-445.8148 0,-246.2167 199.5981,-445.81478 445.8148,-445.81478 246.2167,0 445.8148,199.59808 445.8148,445.81478 z M 1825,1663 m 429.2687,-444.1451 c 0,-187.9308 -152.3479,-340.27872 -340.2787,-340.27872 -187.9307,0 -340.2786,152.34792 -340.2786,340.27872 0,187.9307 152.3479,340.2786 340.2786,340.2786 187.9308,0 340.2787,-152.3479 340.2787,-340.2786 z M 2037,1534" />
    </g>
  </g>
  <g
     id="l7ZnIcDhLsgGQxtucSAK5Xq"
     fill="#ff0000"
     transform="translate(8.722094,-489.97948)">
    <g
       id="g54">
      <path
         id="plggJeVts"
         d="m 3531.4647,2563.1161 c 0,320.9696 -260.1973,581.1669 -581.167,581.1669 -320.9696,0 -581.1669,-260.1973 -581.1669,-581.1669 0,-320.9697 260.1973,-581.167 581.1669,-581.167 320.9697,0 581.167,260.1973 581.167,581.167 z M 2805,3131 m 550.1638,-566.65 c 0,-223.2009 -180.9401,-404.141 -404.141,-404.141 -223.2009,0 -404.141,180.9401 -404.141,404.141 0,223.2009 180.9401,404.141 404.141,404.141 223.2009,0 404.141,-180.9401 404.141,-404.141 z M 3025,2965" />
    </g>
  </g>
  <g
     id="l2ZWFOaNbQxjq7nhZnnpzgx"
     fill="#000000"
     transform="translate(8.722094,-489.97948)">
    <g
       id="g62">
      <path
         id="p164cCB8F5"
         d="M 95.322331,3085.7227 C 85.090097,3074.6777 96,2017 108,2021 c 6,2 72,56 148,119 75,63 154,129 174,145 21,17 78,64 126,105 225,191 332,279 343,282 9,2 11,-81 11,-335 l 0.74782,-332.0174 86.25218,0.7565 88,-0.7391 3,520 c 1,286 0,526 -3,533 -3,8 -33,-11 -86,-55 -45,-37 -98,-81 -119,-98 -21,-16 -162,-133 -314,-258 -175,-145 -282,-227 -291,-223 -13,5 -13.24437,55.0057 -15,330 l -2.14687,336.2767 c -29,0 -162.530799,-4.554 -162.530799,-4.554 z" />
      <path
         id="p1AhMM2gn4"
         d="m 1231,3033 c 18,-32 47,-83 65,-113 l 32,-55 c -39.3333,-2 -75.6754,-1.0087 -117.813,-3.1957 L 1210,2775 v -85 h 103 102 l 164,-302 c 90,-167 171,-316 180,-332 9,-16 20,-30 26,-30 5,-1 28,33 51,74 204.6833,388.8119 313.3623,570.3064 528.1187,987.7843 0,0 -16.1187,2.2157 -96.1187,0.2157 l -101.2322,0.5355 L 2107,2972 l -58,-112 -266,2 -265,3 -61,113 -62,112 h -98 -98 z m 729.3966,-351.339 C 1971.401,2681.4288 1789,2350 1781,2350 c -10,1 -180.3739,325.1217 -175.3739,333.1217 10.7391,5.6435 344.5767,-1.2456 354.7705,-1.4607 z" />
      <path
         id="p6HTv2Kx6"
         d="m 2488.7383,1224.2584 c 0,319.4197 -258.9408,578.3605 -578.3605,578.3605 -319.4197,0 -578.3605,-258.9408 -578.3605,-578.3605 0,-319.41974 258.9408,-578.36057 578.3605,-578.36057 319.4197,0 578.3605,258.94083 578.3605,578.36057 z M 1840,1800 m 479.2026,-575.5616 c 0,-225.3231 -182.6604,-407.98358 -407.9836,-407.98358 -225.3231,0 -407.9835,182.66048 -407.9835,407.98358 0,225.3231 182.6604,407.9836 407.9835,407.9836 225.3232,0 407.9836,-182.6605 407.9836,-407.9836 z M 2044,1613" />
      <path
         id="peDGS0BWK"
         d="m 2629,1803 c -1,-5 -2,-268 -3,-585 l -1,-578 h 165 c 206,0 263,9 369,60 237,114 363,373 314,648 -65.2486,296.2635 -369.5738,484.9218 -844,455 z m 345,-173 c 236.7479,-73.9426 335.7798,-215.8111 336,-401 -11.2787,-291.34281 -201.1392,-405.61092 -429,-416 -80.6348,-2.50436 -85.8783,1.90441 -85.8783,1.90441 0,0 4.8783,206.09559 4.8783,426.09559 v 399 h 58 c 31,0 84,-4 116,-10 z" />
      <path
         id="paOfB2RPQ"
         d="m 50,1193 1,-538 32,40 c 18,21 88,105 157,186 69,80 183,216 255,302 72,86 133,156 136,156 7,1 118,-128 284,-329 74,-90 277,-333 297,-355 4,-5 8,235 8,533 v 542 h -90 -90 l -2,-262 c 0,-145 -1,-269 -1,-275 1,-25 -27,-12 -59,28 -18,22 -69,84 -113,137 -44,53 -114,139 -155,190 -41,51 -77,91 -81,90 -6,-3 -46,-50 -273,-326 -60,-73 -114,-131 -120,-129 -7,2 -12,92 -14,275 l -2,272 H 135 50 Z" />
    </g>
  </g>
</svg>
